<svg width="382" height="382" viewBox="0 0 382 382" fill="none" xmlns="http://www.w3.org/2000/svg">
<circle cx="191" cy="190.821" r="190.321" fill="white" stroke="#A1A8B3"/>
<path d="M51.1773 169.795L65.6642 201.559H36.7938L51.1773 169.795ZM230.91 217.598C216.216 217.598 204.524 205.803 204.524 191.42C204.524 177.036 216.216 165.137 230.91 165.137C245.604 165.137 257.296 176.933 257.296 191.316C257.296 205.699 245.598 217.598 230.91 217.598ZM137.472 211.387L113.985 158.822H105.605L134.993 223.183C135.511 224.218 136.236 224.735 137.374 224.735C138.41 224.735 139.341 224.218 139.859 223.183L169.247 158.822H161.178L137.472 211.387ZM354.863 158.828V210.772L306.853 159.139C306.025 158.311 305.404 158 304.575 158C303.126 158 302.195 159.035 302.195 160.692V223.913H309.332L309.125 172.176L357.342 223.603C358.17 224.431 358.791 224.741 359.619 224.741C361.068 224.741 362 223.706 362 222.05V158.828H354.863ZM230.91 158C212.081 158 196.869 173.522 196.869 191.42C196.869 209.317 212.081 224.735 230.91 224.735C249.745 224.735 264.951 209.213 264.951 191.316C264.951 173.413 249.739 158 230.91 158V158ZM51.4878 158C50.4526 158 49.521 158.518 49.0034 159.553L19 223.907H26.7582L34.0046 208.391H68.5628L75.8034 223.913H83.8721L53.8688 159.547C53.3512 158.518 52.6265 158 51.4878 158" fill="black"/>
</svg>
