<svg width="83" height="82" viewBox="0 0 83 82" fill="none" xmlns="http://www.w3.org/2000/svg">
<circle cx="41.1298" cy="40.8781" r="40.3781" fill="white" stroke="#A1A8B3"/>
<g clip-path="url(#clip0)">
<path d="M52.7602 23.1527C54.8668 22.1251 55.9108 22.2599 55.9343 23.3015C55.9625 24.6546 55.7611 26.4539 55.6159 27.7558C54.834 34.8321 53.5278 40.6143 53.4295 47.8798C56.8705 39.0325 59.7544 32.8834 63.4716 25.3101C64.6515 22.897 65.4052 23.348 66.3742 22.9202C70.1477 21.251 70.2882 22.2739 69.7965 24.3151C67.966 31.8754 63.2796 55.6795 62.5635 59.3448C62.3574 60.4054 61.1964 59.9558 60.8967 59.5411C59.5532 57.6952 58.0363 57.6663 58.2048 56.4388C59.0475 50.3278 62.0811 34.9953 62.8724 31.3825C58.8414 39.59 54.6608 49.8503 52.5119 55.6679C52.0577 56.9033 51.2291 56.8127 50.7142 55.9088C49.9885 54.639 48.5794 53.9908 48.3452 52.4904C47.6102 47.7199 49.188 38.6271 49.4079 32.8746C47.2123 39.1585 43.5279 51.3586 41.9127 56.8707C41.2479 59.1514 39.0288 58.7793 39.6186 56.5565C42.0717 47.306 47.3574 30.9455 49.642 25.0637C50.1807 23.678 51.5897 23.7245 52.7602 23.1527Z" fill="#CC071E"/>
<path d="M39.3797 22.0182C38.6682 21.8462 36.6035 22.9528 35.3348 23.1713C34.9322 23.2411 34.5483 23.6642 34.4125 23.9665C32.3806 28.6021 30.5595 33.0211 28.9818 37.0467C26.964 37.3889 24.6045 37.8395 21.9641 38.4285C23.8554 33.6102 25.7656 28.8578 27.6288 24.2872C28.5464 22.0368 26.1307 21.8229 25.1944 24.1012C23.9771 27.0631 21.6972 32.6124 19.1737 39.0805C17.3198 39.5319 15.3536 40.048 13.2983 40.6376C11.8048 41.0658 11.744 41.461 12.3901 42.3505C12.7459 42.8458 13.4809 42.7959 13.8179 43.1488C14.6887 44.0634 15.2178 45.1574 16.7767 45.323C15.3862 49.0171 13.9958 52.8266 12.7364 56.4946C11.9452 58.7971 14.1971 59.2681 15.0632 56.8316C16.4584 52.9041 17.9284 48.9291 19.4406 44.9659C20.6999 44.6752 23.7476 44.0233 26.5613 43.417C24.3281 49.4959 22.858 54.1125 22.301 56.3597C22.198 56.792 22.3712 57.032 22.4648 57.2082C23.2186 58.2976 23.9349 58.3422 24.904 59.6892C25.1662 60.0565 26.0464 60.2546 26.3459 59.3502C28.4152 53.1425 30.5454 47.318 32.5303 42.0964C33.3543 41.9174 34.8383 41.5617 35.7466 40.2157C37.3617 37.8266 37.8252 38.3112 38.2139 37.5849C38.7007 36.6731 38.3776 35.8171 36.6549 36.0286C36.6549 36.0286 36.0041 36.0746 34.8009 36.2109C36.711 31.3265 38.3824 27.1836 39.5855 24.0266C39.9977 22.9575 40.0492 22.1763 39.3797 22.0182Z" fill="#CC071E"/>
<path d="M36.5618 53.6978C37.0065 54.8141 38.397 54.4761 37.8679 53.1287C37.3295 51.756 35.9906 47.6239 35.6394 46.2927C35.1619 44.4989 37.2311 44.9895 36.1825 46.1622C35.2837 47.1706 34.6843 47.5747 33.0224 49.4922C31.4166 51.3432 31.852 53.7452 33.5702 54.2758C35.5083 54.8746 37.2172 52.7535 38.2752 51.1973C39.3004 49.6904 38.3079 48.8065 37.2733 49.6973C36.6085 50.2702 35.8407 51.1498 35.0635 51.6241C34.4315 52.0058 33.9352 51.5957 34.778 50.4436C35.7564 49.1097 36.8519 47.9919 37.6665 46.7313C39.3285 44.1624 36.042 42.6816 34.6281 44.3503C33.8697 45.2398 34.0616 46.113 34.2676 46.8625C34.6001 48.063 35.836 51.8952 36.5618 53.6978Z" fill="#CC071E"/>
</g>
<defs>
<clipPath id="clip0">
<rect width="58" height="38" fill="white" transform="translate(12 22)"/>
</clipPath>
</defs>
</svg>
