<svg width="38" height="38" viewBox="0 0 38 38" fill="none" xmlns="http://www.w3.org/2000/svg">
<path d="M15.8362 2.29382H22.1871V3.36246H24.4806V2.14423C24.4809 0.961945 23.5196 0 22.3379 0H15.6854C14.5037 0 13.5424 0.961945 13.5424 2.14423V3.36246H15.8362V2.29382Z" fill="black"/>
<path d="M29.7774 12.4502H8.24583C7.65585 12.4502 7.1914 12.9535 7.23895 13.5417L9.03904 35.8004C9.13935 37.043 10.1758 38 11.421 38H26.6019C27.8471 38 28.8836 37.043 28.9839 35.8001L30.784 13.5417C30.8318 12.9535 30.3674 12.4502 29.7774 12.4502ZM13.4594 35.6259C13.4353 35.6273 13.4113 35.6282 13.3875 35.6282C12.7862 35.6282 12.2815 35.16 12.2441 34.5517L11.116 16.2785C11.0772 15.6462 11.5581 15.1021 12.1901 15.0632C12.8201 15.0249 13.3666 15.5048 13.4055 16.1374L14.5333 34.4105C14.5724 35.0428 14.0914 35.5867 13.4594 35.6259ZM20.1713 34.4813C20.1713 35.1145 19.6578 35.6279 19.0244 35.6279C18.3909 35.6279 17.8774 35.1145 17.8774 34.4813V16.2078C17.8774 15.5743 18.3909 15.0609 19.0244 15.0609C19.6575 15.0609 20.1713 15.5743 20.1713 16.2078V34.4813ZM26.9072 16.2754L25.8302 34.5485C25.7945 35.1579 25.2889 35.6279 24.6864 35.6279C24.6638 35.6279 24.6409 35.6273 24.618 35.6262C23.9857 35.5888 23.5033 35.046 23.5407 34.4137L24.6174 16.1403C24.6545 15.5079 25.1955 15.0255 25.8296 15.0629C26.4619 15.1 26.9443 15.6431 26.9072 16.2754Z" fill="black"/>
<path d="M33.7434 8.91086L32.9902 6.65298C32.7916 6.05779 32.2344 5.65625 31.6067 5.65625H6.41611C5.78873 5.65625 5.23122 6.05779 5.03292 6.65298L4.27972 8.91086C4.13447 9.34631 4.32349 9.79047 4.67632 10.012C4.82012 10.1021 4.9903 10.1563 5.1773 10.1563H32.8458C33.0328 10.1563 33.2033 10.1021 33.3468 10.0117C33.6996 9.79018 33.8887 9.34602 33.7434 8.91086Z" fill="black"/>
</svg>
